<?xml version="1.0" encoding="UTF-8"?>
<svg id="Layer_1" data-name="Layer 1" xmlns="http://www.w3.org/2000/svg" viewBox="0 0 680.17 435.2">
  <defs>
    <style>
      .cls-1 {
        fill: #5c5cc1;
      }

      .cls-1, .cls-2, .cls-3 {
        stroke-width: 0px;
      }

      .cls-2 {
        fill: #fff;
      }

      .cls-3 {
        fill: #bd75ea;
      }
    </style>
  </defs>
  <g>
    <path class="cls-2" d="m669.72,358.64c-9.75,18.14-26.18,31.54-48.84,39.85-2.87,1.21-9.6,3.52-19.24,3.52-7.01,0-14.12-1.21-21.11-3.62-.62-.21-1.23-.41-1.86-.63-4.89-1.63-11.2-3.73-17.9-8.3-.01,0-.01-.01-.02-.01-7.01-3.95-13.37-10.24-18.15-10.24-.83,0-1.6.19-2.33.61-4.23,2.42-2.34,9.75-1.7,11.82.01.03.02.05.02.07.06.18.11.32.14.4.01.05.02.08.02.08.45,1.42.77,2.85.95,4.31.35,2.88.22,5.75-.4,8.53-.6,2.58-1.55,4.98-2.86,7.16-1.04,1.74-2.3,3.29-3.72,4.62-.29,1.09-.67,2.16-1.12,3.19l-.09.21-.1.21c-.93,1.94-2.16,3.81-3.74,5.69-2.26,2.66-5.07,4.79-8.38,6.3-3.22,1.49-6.77,2.24-10.53,2.24-.15,0-.29,0-.44-.01-4.21-.06-8.48-1.28-12.67-3.6l-.04-.02-.03-.02c-2.98-1.67-5.54-3.81-7.6-6.34-.28-.35-.55-.71-.81-1.07-2.35-.45-4.72-1.21-7.08-2.33l-.04-.02-.04-.02c-3.09-1.47-5.78-3.43-8-5.82-.11-.12-.21-.25-.33-.37-4.58-.7-8.64-2.8-11.72-6.02-.05,0-.11-.01-.17-.02-3-.53-5.95-1.63-9.04-3.39-2.01-1.14-3.79-2.54-5.3-4.14-1.38-.06-2.76-.16-4.15-.37-3.14-.47-6.11-1.21-8.86-2.21-3.37-1.22-6.35-2.85-8.83-4.83-1.18-.94-2.26-1.96-3.22-3.05-.91.35-1.85.65-2.82.87-1.65.38-3.37.59-5.11.59-1.91,0-3.89-.24-5.86-.72-3.69-.9-7.23-2.74-10.5-5.47-.3-.25-.59-.51-.87-.76-.83.36-1.69.68-2.58.94-1.99.59-4.05.88-6.1.88-1.86,0-3.71-.24-5.54-.73-1.12-.29-2.22-.7-3.28-1.17-1.63.28-3.33.43-5.09.43-1.89,0-3.91-.17-5.98-.5h-.05s-.06-.02-.06-.02c-3.02-.5-5.79-1.39-8.32-2.64-2.51.91-5.25,1.47-8.2,1.65h-.1c-.53.04-1.06.05-1.59.05-2.84,0-5.61-.44-8.22-1.3-.44-.14-.86-.31-1.29-.48-2.22.89-4.63,1.51-7.24,1.85h-.11c-1.12.15-2.27.21-3.38.21-2.21,0-4.39-.27-6.48-.81-.4-.1-.8-.23-1.19-.35-.05.02-.09.04-.13.06-3.57,1.69-7.6,2.64-12.32,2.91h-.11c-.54.03-1.07.04-1.6.04-4.58,0-8.83-1.01-12.63-2.98-2.51,1.95-4.84,3.53-7.05,4.76-3.26,1.79-6.26,2.98-9.16,3.59-1.71.35-3.41.55-5.06.55-2.89,0-5.65-.57-8.17-1.63-1.32,1.66-2.86,3.2-4.67,4.62-3.11,2.45-6.81,4.28-11.34,5.6h-.05s-.05.03-.05.03c-2.71.77-5.41,1.15-8.06,1.15-1.18,0-2.35-.08-3.5-.23-.37.53-.77,1.05-1.18,1.55-2.57,3.03-5.91,5.28-9.64,6.52-1.01.34-2.04.59-3.09.77-1.12.9-2.34,1.69-3.65,2.35-1.18.6-2.42,1.07-3.69,1.42-.54.49-1.09.95-1.66,1.38l-.17.13-.17.12c-2.55,1.81-5.34,3.1-8.31,3.84l-.13.04-.14.03c-1.7.39-3.43.6-5.15.6-.91,0-1.82-.06-2.73-.17-.37,1.03-.82,2.04-1.36,3.02-2.32,4.25-5.94,7.55-10.47,9.56-3.05,1.36-6.16,2.04-9.26,2.04-5.27,0-10.27-2.01-14.05-5.64-3.63-3.48-6.04-8.13-7.37-14.2l-.03-.11-.02-.1c-.02-.09-.05-.19-.09-.28,0-.01-.08-.17-.29-.51-.24-.35-.7-.96-1.47-1.81-.81-.89-1.83-1.91-3.07-3.04-3.93-3.57-6.49-7.36-7.82-11.56-1.32-4.14-1.57-8.2-.73-12.07.19-.89.45-1.76.74-2.61-9.68,8.7-23.41,13.92-40.97,15.54-3.78.34-7.41.6-10.76.75-3.33.15-6.54.22-9.51.22-30.94,0-42.49-8-56.59-20.23-.64-.55-1.29-1.1-1.94-1.68-12.45-10.69-11.92-21.6-10.5-27.15.11-.4.22-.81.34-1.21-1.79-1.38-3.25-2.85-4.4-4.24-6.91-8.36-8.79-20.4-5.73-36.82.87-5.63,9.86-58.77,46.09-108.18,2.28-3.34,10.76-14.22,24.44-14.84.39-.02.79-.03,1.18-.03,1.67,0,3.32.16,4.94.49.5-2.62,1.15-4.9,1.86-6.84l-.13-3.13,3.81-4.18c.13-.2.28-.43.45-.65l.62-.88.07-.08c.23-.32.48-.66.74-.99l.1-.12c1.13-1.45,2.44-2.78,3.89-3.98.9-.82,1.86-1.68,2.86-2.53,4-3.39,9.08-5.39,14.3-5.64.14,0,.28-.01.41-.01,2.78-4.97,7.26-8.76,12.75-10.73h.03s.03-.02.03-.02c2.18-.77,4.35-1.42,6.48-1.92,7.03-2.09,14.21-3.33,21.32-3.65,1.28-.05,2.56-.08,3.83-.08,4.75,0,9.41.4,13.86,1.19,4.07.72,7.98,2.03,11.65,3.86,6.69-24.43,23.82-42.81,49.6-52.65,13.35-5.09,24.93-7.79,35.37-8.25,1.1-.05,2.21-.08,3.27-.08,1.12,0,2.23.04,3.32.09-1.35-5.05-1.94-10.31-1.67-15.61.71-13.79,7.15-26.7,18.13-36.35,10.28-9.02,23.74-14.2,36.94-14.2,2.69,0,5.38.21,8,.63,1.39.22,2.78.51,4.17.85,5.02-6.77,10-11.76,15.02-15.05,5.03-3.3,10.11-4.9,15.35-4.9,2.67,0,5.3.45,7.79,1.31,17.64,6.11,22.3,19.09,20.94,28.35-1.51,10.18-9.91,17.59-20.44,18.02-.54.04-1.7.25-3.18.75,1.87,3.97,3.16,8.14,3.78,12.38,1.13,7.65.13,15.65-2.79,23.33,8.41.67,16.7,3.82,23.64,9.05l.96.73.17.17c4.43,3.51,8.48,7.58,12.04,12.1,2.36,2.99,4.88,7.2,7.26,11.99,9.36-9.96,22.31-16.03,36.39-16.67h.16c.6-.03,1.43-.06,2.33-.06,2.24,0,4.52.15,6.81.44,27.3,3.35,46.18,8.53,61.18,16.8,16.25,8.97,27.9,21.58,36.66,39.73.78,1.61,1.47,3.29,2.09,5.02,4.18-.91,8.5-1.39,12.9-1.39,4.94,0,10.02.59,15.08,1.73,19.33,4.35,34.02,17.09,41.39,35.87,5.1,12.99,5.31,25.2,5.24,28.81v6.59c8.54,1.53,16.35,5.35,22.92,11.27,8.51,7.67,14.89,18.77,18.93,33l.67,2.34v.13c1.46,5.78,2.27,11.6,2.41,17.32.02.9.04,1.81.06,2.72.04,1.75.08,3.4.14,4.99.83,20.4-2.55,37.34-10.33,51.82Z"/>
    <g>
      <path class="cls-1" d="m159.19,386.67c1.91-1.75,3.78-3.1,5.62-4.02,1.83-.93,3.59-1.52,5.26-1.78,1.67-.26,3.23-.23,4.68.09,1.45.32,2.74.85,3.86,1.57,1.12.73,2.05,1.61,2.8,2.65.75,1.04,1.24,2.15,1.48,3.33.2.95.25,1.88.14,2.81-.11.93-.31,1.82-.61,2.68-.3.86-.67,1.7-1.11,2.5-.44.81-.91,1.55-1.39,2.24-1.14,1.63-2.5,3.14-4.09,4.54,1.59,1.65,2.79,3.22,3.61,4.72.82,1.5,1.3,2.87,1.43,4.12.14,1.25-.04,2.33-.55,3.25-.5.92-1.29,1.61-2.36,2.08-1.87.84-3.35.74-4.42-.29-1.08-1.03-1.9-2.85-2.47-5.45-.24-1.18-.6-2.34-1.08-3.48-.48-1.14-1.12-2.3-1.92-3.49-.8-1.19-1.79-2.43-2.96-3.71-1.17-1.29-2.57-2.68-4.21-4.19-1.62-1.48-2.63-2.84-3.03-4.09-.4-1.25-.5-2.32-.3-3.23.23-1.08.77-2.02,1.62-2.83Zm12.08,10.41c.64-.45,1.19-.97,1.66-1.57.42-.5.79-1.1,1.12-1.81.32-.71.47-1.52.44-2.43-.04-.87-.34-1.52-.91-1.97-.57-.45-1.26-.74-2.06-.87-.81-.13-1.66-.12-2.56,0-.9.13-1.67.35-2.32.64-.65.29-1.12.63-1.42,1.03-.3.4-.25.79.14,1.16.55.57,1.18,1.19,1.87,1.86.69.67,1.34,1.29,1.93,1.87.71.69,1.42,1.39,2.12,2.08Z"/>
      <path class="cls-1" d="m202.79,390.97c-.75-.94-1.4-1.9-1.96-2.88-.56-.98-.97-1.71-1.23-2.21-.28-.52-.6-1.3-.95-2.33-.35-1.03-.59-2.11-.71-3.23-.12-1.12-.06-2.19.18-3.2.24-1.01.83-1.77,1.76-2.26.91-.48,1.81-.64,2.7-.46.89.18,1.65.55,2.27,1.12s1.04,1.29,1.25,2.14c.21.86.1,1.72-.32,2.58-.41.82-.57,1.71-.49,2.67.09.96.3,1.89.64,2.79.34.9.73,1.72,1.17,2.45.44.74.83,1.3,1.14,1.7.22.27.53.61.94,1.01.41.4.83.85,1.27,1.34.44.49.85,1,1.23,1.52.38.52.65,1.03.79,1.54.15.51.13.98-.04,1.42-.17.44-.58.82-1.23,1.13-.41.22-.85.31-1.32.25-.47-.05-.92-.18-1.34-.37-.42-.2-.81-.43-1.17-.7-.36-.27-.65-.52-.88-.75-.24,1.61-.67,2.89-1.3,3.82-.63.94-1.28,1.65-1.93,2.14-.8.57-1.63.96-2.5,1.17-.82.19-1.63.2-2.43.02-.67-.14-1.41-.47-2.2-1-.8-.53-1.52-1.42-2.18-2.65-.47-.88-.92-1.81-1.35-2.78-.43-.97-.86-1.9-1.3-2.78-.44-.88-.88-1.67-1.34-2.36-.46-.69-.93-1.17-1.43-1.44-1.06-.6-1.85-1.35-2.37-2.26-.52-.91-.81-1.82-.88-2.74s.09-1.78.46-2.58c.37-.8.94-1.4,1.71-1.81,1.1-.59,2.1-.73,3-.43.9.3,1.68.8,2.34,1.51.66.71,1.19,1.49,1.59,2.33.4.85.66,1.52.79,2.02.22.8.46,1.79.75,2.94.28,1.16.63,2.26,1.04,3.29s.91,1.87,1.49,2.49c.58.63,1.29.82,2.12.59.58-.17,1.02-.43,1.33-.79.3-.36.52-.76.66-1.2.14-.44.21-.91.24-1.4.02-.49.02-.96,0-1.4Z"/>
      <path class="cls-1" d="m209.96,369.59c.56-.49,1.23-.49,2-.02.77.48,1.6,1.29,2.48,2.43.02-.56.12-1.13.28-1.71.16-.58.42-1.14.76-1.67.34-.53.78-1.01,1.3-1.45.52-.44,1.17-.78,1.95-1.02.78-.24,1.52-.22,2.23.06.71.28,1.32.71,1.85,1.28.52.57.93,1.23,1.22,1.99.29.76.4,1.48.34,2.15-.06.67-.31,1.26-.75,1.77-.44.5-1.15.78-2.11.84-.27.02-.55.02-.86.02-.31,0-.6.1-.86.31-.27.2-.49.56-.68,1.07-.18.51-.29,1.26-.32,2.27.38.62.79,1.33,1.25,2.13.46.8.9,1.6,1.31,2.39.42.79.79,1.54,1.1,2.25.32.71.53,1.27.64,1.66.34,1.38.41,2.59.21,3.62-.2,1.03-.57,1.86-1.11,2.49-.53.63-1.18,1.07-1.93,1.32-.75.25-1.49.3-2.21.14-.64-.13-1.15-.38-1.55-.77-.4-.39-.69-.85-.9-1.39-.21-.54-.35-1.15-.43-1.83-.08-.68-.14-1.41-.17-2.18-.01-.64-.08-1.38-.21-2.21-.13-.83-.35-1.75-.66-2.75-.31-1.01-.73-2.08-1.26-3.23-.53-1.15-1.2-2.38-2.02-3.69-.77-1.19-1.25-2.19-1.43-3-.19-.8-.24-1.45-.14-1.93.09-.55.32-1,.68-1.33Z"/>
      <path class="cls-1" d="m236.49,376.68c.17.37.43.68.78.91.31.22.74.41,1.28.58.54.17,1.25.23,2.13.18.65-.04,1.25-.23,1.81-.58.55-.35,1.08-.76,1.57-1.24.49-.48.96-.97,1.41-1.48.45-.51.91-.93,1.38-1.27.48-.34.98-.55,1.52-.62.54-.08,1.13.06,1.79.42.84.49,1.4,1.21,1.68,2.16.27.95.18,1.96-.29,3.04-.47,1.08-1.36,2.14-2.68,3.18-1.32,1.04-3.14,1.9-5.49,2.58-2.14.61-4.06.67-5.78.18-1.72-.49-3.21-1.31-4.47-2.46-1.26-1.15-2.31-2.51-3.14-4.09-.83-1.57-1.43-3.14-1.8-4.7-.28-1.13-.39-2.48-.35-4.05.04-1.57.34-3.11.9-4.6.55-1.49,1.4-2.83,2.53-4,1.14-1.17,2.65-1.9,4.53-2.19,1.29-.2,2.51-.18,3.68.06,1.17.24,2.24.64,3.21,1.18.98.54,1.85,1.19,2.62,1.94.77.75,1.41,1.54,1.92,2.36.51.83.88,1.65,1.09,2.47.21.82.25,1.55.12,2.2-.1.54-.36,1.06-.75,1.57-.4.51-.88,1-1.46,1.47-.57.47-1.22.92-1.93,1.34-.71.42-1.42.81-2.12,1.16-1.69.84-3.58,1.61-5.68,2.3Zm-2.53-5.75c1.41-.41,2.65-.88,3.72-1.4.46-.2.9-.42,1.33-.66.43-.24.79-.49,1.1-.75.3-.26.53-.52.69-.77.16-.26.19-.52.09-.78-.37-1.03-.98-1.68-1.83-1.97-.85-.29-1.67-.29-2.46,0-.41.15-.82.43-1.24.85-.41.42-.76.91-1.05,1.5-.29.58-.48,1.22-.58,1.9-.1.68-.02,1.38.23,2.08Z"/>
      <path class="cls-1" d="m263.48,342.28c.66-.81,1.4-1.52,2.23-2.12.83-.61,1.84-1.04,3.03-1.29,1.16-.25,2.54-.28,4.14-.11,1.6.17,3.52.58,5.76,1.21,1.47.45,2.88,1.1,4.24,1.94,1.36.84,2.59,1.83,3.69,2.97,1.1,1.14,2.04,2.4,2.82,3.8.78,1.4,1.33,2.86,1.65,4.38.27,1.28.37,2.59.29,3.93-.08,1.34-.38,2.69-.91,4.04-.53,1.36-1.28,2.71-2.27,4.05-.99,1.34-2.26,2.64-3.81,3.9-2.31,1.89-4.33,3.32-6.07,4.28-1.74.96-3.22,1.57-4.44,1.83-1.65.35-2.89.16-3.73-.57s-1.41-1.81-1.72-3.25c-.16-.76-.25-1.59-.26-2.48-.01-.89,0-1.82.05-2.79.09-1.81.12-3.37.08-4.68-.04-1.31-.17-2.51-.4-3.57-.31-1.43-.78-2.7-1.43-3.81-.65-1.11-1.49-2.28-2.52-3.53-.39-.46-.68-.93-.9-1.41-.21-.48-.37-.93-.46-1.36-.15-.7-.18-1.39-.1-2.06.08-.67.2-1.25.35-1.73.19-.58.43-1.11.71-1.59Zm7.34,4.37s-.04.1-.05.2c-.02.2-.01.39.03.57.03.15.07.3.12.45.05.15.14.34.29.56.28.42.75,1.32,1.41,2.69.66,1.38,1.22,3.16,1.69,5.36.16.73.25,1.5.28,2.31.03.81.04,1.59.02,2.36-.01.77-.02,1.48-.02,2.13,0,.65.04,1.2.13,1.62.15.7.48,1,1,.89.37-.08.82-.33,1.37-.77,2.02-1.58,3.47-3.26,4.33-5.06.86-1.79,1.09-3.64.69-5.53-.28-1.31-.8-2.53-1.57-3.66-.77-1.13-1.63-2.1-2.58-2.92-.96-.82-1.95-1.43-2.97-1.83-1.03-.4-1.92-.52-2.68-.36-.58.12-1.07.45-1.47.98Z"/>
      <path class="cls-1" d="m302.05,360.13c.08.4.26.75.55,1.06.25.28.63.57,1.12.85.49.29,1.17.5,2.03.65.64.11,1.27.06,1.89-.16.62-.22,1.22-.5,1.81-.85.59-.35,1.15-.73,1.7-1.12.55-.4,1.09-.7,1.63-.93.54-.22,1.08-.31,1.62-.27.54.04,1.09.32,1.65.81.71.67,1.09,1.49,1.15,2.48.06.98-.27,1.95-.97,2.9-.7.95-1.81,1.78-3.33,2.5-1.52.72-3.49,1.14-5.92,1.28-2.22.11-4.11-.27-5.67-1.13-1.56-.86-2.83-2-3.8-3.4-.97-1.41-1.69-2.97-2.15-4.69-.46-1.72-.69-3.38-.7-4.98-.02-1.16.18-2.5.57-4.03.4-1.52,1.03-2.95,1.91-4.28.88-1.33,2-2.44,3.37-3.33,1.37-.89,3.01-1.26,4.91-1.11,1.3.09,2.49.39,3.57.89,1.08.5,2.04,1.12,2.87,1.87.83.75,1.53,1.57,2.11,2.48.58.9,1.03,1.82,1.34,2.74.32.92.48,1.8.51,2.65.02.85-.1,1.57-.37,2.17-.22.5-.58.95-1.09,1.36-.5.41-1.08.78-1.75,1.11-.67.33-1.39.62-2.18.88-.79.25-1.56.47-2.32.66-1.83.44-3.85.76-6.06.97Zm-1.17-6.17c1.47-.08,2.78-.26,3.94-.52.49-.09.97-.2,1.44-.34.47-.13.88-.3,1.24-.48.35-.18.64-.38.85-.6.21-.21.3-.46.26-.74-.13-1.08-.58-1.86-1.34-2.34-.76-.47-1.56-.66-2.4-.56-.43.05-.9.23-1.39.55-.5.31-.95.72-1.36,1.23-.41.51-.74,1.08-.99,1.72-.25.64-.33,1.34-.24,2.08Z"/>
      <path class="cls-1" d="m319.05,347.49c.05-1.56.37-2.85.97-3.86.59-1.01,1.33-1.8,2.21-2.35.88-.56,1.86-.93,2.94-1.12,1.08-.19,2.17-.27,3.27-.22,1.25.07,2.35.33,3.29.78.94.46,1.73,1.01,2.35,1.67.62.66,1.1,1.37,1.44,2.13.33.76.53,1.49.59,2.17.06.68,0,1.29-.22,1.81-.21.53-.55.86-1.01,1.01-.77.26-1.42.35-1.95.28-.53-.07-.99-.24-1.36-.52-.37-.28-.69-.62-.96-1.03-.27-.41-.54-.81-.81-1.2-.27-.39-.56-.75-.87-1.08-.31-.33-.67-.55-1.08-.65-.69-.15-1.27-.08-1.72.22-.45.3-.7.73-.74,1.28-.04.55.19,1.15.67,1.82.48.66,1.33,1.27,2.54,1.8,2.74,1.18,4.79,2.47,6.15,3.86,1.36,1.39,2.16,2.62,2.4,3.7.12.65.15,1.45.09,2.41-.06.96-.36,1.91-.89,2.88-.53.96-1.35,1.84-2.45,2.62-1.1.79-2.62,1.3-4.54,1.55-1.24.15-2.4.09-3.48-.19-1.07-.28-2.04-.68-2.89-1.22-.85-.54-1.57-1.17-2.15-1.89-.58-.72-.99-1.46-1.23-2.21-.24-.75-.28-1.47-.12-2.15.15-.68.55-1.25,1.18-1.72.69-.53,1.3-.79,1.84-.77.53.02,1.02.19,1.48.49.45.31.86.7,1.23,1.18.37.48.75.94,1.14,1.38.4.43.81.78,1.24,1.04s.93.3,1.48.12c.46-.15.85-.42,1.16-.83.31-.4.39-.89.26-1.46-.14-.57-.57-1.2-1.31-1.88-.74-.68-1.9-1.36-3.49-2.04-1.66-.7-2.94-1.51-3.84-2.42-.9-.91-1.56-1.76-1.97-2.55-.48-.94-.76-1.88-.84-2.82Z"/>
      <path class="cls-1" d="m339.95,346.62c.15-1.56.56-2.82,1.22-3.79.66-.97,1.44-1.7,2.36-2.2.91-.5,1.92-.81,3.01-.93,1.09-.12,2.19-.12,3.28,0,1.24.15,2.32.48,3.23,1,.91.52,1.66,1.12,2.24,1.82.58.7,1.01,1.44,1.29,2.22.28.79.43,1.52.45,2.21.02.69-.09,1.29-.34,1.8-.24.51-.6.82-1.07.94-.78.2-1.44.25-1.97.15-.53-.1-.97-.31-1.32-.61-.35-.3-.65-.67-.89-1.09-.24-.43-.48-.84-.72-1.25-.24-.41-.51-.79-.8-1.14-.29-.35-.64-.59-1.04-.72-.68-.2-1.26-.16-1.73.11-.47.27-.75.68-.82,1.22-.07.55.11,1.16.55,1.86.44.69,1.25,1.35,2.42,1.97,2.66,1.36,4.62,2.78,5.89,4.25,1.27,1.47,1.98,2.76,2.15,3.85.08.66.06,1.46-.07,2.41-.13.95-.49,1.89-1.08,2.81-.59.92-1.47,1.74-2.62,2.45-1.15.71-2.7,1.13-4.63,1.25-1.25.07-2.4-.07-3.46-.42s-1.99-.82-2.8-1.41c-.82-.59-1.49-1.27-2.02-2.03-.53-.76-.89-1.52-1.08-2.29-.19-.77-.18-1.48.02-2.15.2-.67.63-1.21,1.3-1.64.73-.48,1.35-.7,1.88-.64.53.06,1.01.25,1.44.59.43.34.81.76,1.14,1.26.33.51.68.99,1.05,1.45.37.46.76.83,1.17,1.12s.91.36,1.47.22c.47-.12.87-.37,1.21-.75s.45-.86.36-1.44c-.1-.58-.49-1.23-1.18-1.96-.69-.73-1.81-1.49-3.35-2.26-1.61-.81-2.83-1.7-3.67-2.67-.84-.97-1.44-1.86-1.8-2.68-.42-.98-.63-1.93-.65-2.87Z"/>
      <path class="cls-1" d="m366.41,358.34c0,.41.1.79.32,1.16.19.33.49.69.91,1.07.42.38,1.04.74,1.85,1.06.6.24,1.23.32,1.88.24.65-.08,1.3-.23,1.94-.45.65-.22,1.28-.47,1.9-.74.62-.27,1.22-.46,1.79-.56s1.12-.08,1.64.08c.52.16,1,.54,1.44,1.14.55.8.75,1.69.6,2.66-.15.97-.67,1.85-1.56,2.63-.89.78-2.15,1.36-3.78,1.74-1.63.38-3.65.38-6.06,0-2.19-.36-3.96-1.12-5.31-2.3-1.35-1.17-2.35-2.55-3-4.13-.65-1.58-1.02-3.26-1.11-5.04-.09-1.78.04-3.45.37-5.02.23-1.14.7-2.41,1.41-3.82.71-1.41,1.63-2.67,2.77-3.78,1.14-1.12,2.47-1.97,3.99-2.54,1.53-.58,3.2-.6,5.03-.05,1.25.37,2.35.91,3.3,1.62.95.71,1.75,1.52,2.41,2.43.65.91,1.17,1.86,1.54,2.87.38,1.01.62,1.99.74,2.96.11.97.09,1.87-.06,2.7-.15.83-.43,1.51-.82,2.04-.32.44-.77.81-1.35,1.1-.58.29-1.22.53-1.95.71-.72.18-1.49.32-2.32.4-.82.08-1.63.13-2.41.15-1.88.05-3.93-.06-6.13-.33Zm.16-6.28c1.45.23,2.77.33,3.96.32.5.01.99,0,1.48-.03.49-.03.93-.1,1.31-.21s.7-.24.95-.41c.25-.16.39-.39.41-.67.1-1.09-.17-1.94-.82-2.57-.65-.62-1.39-.97-2.23-1.05-.44-.04-.93.04-1.48.24s-1.08.5-1.59.91-.95.9-1.33,1.47c-.38.58-.61,1.24-.68,1.98Z"/>
      <path class="cls-1" d="m390.07,344.14c.74-.1,1.3.26,1.68,1.08.38.82.63,1.95.74,3.39.33-.45.72-.88,1.18-1.28.46-.4.98-.72,1.55-.98.58-.25,1.21-.42,1.88-.5.68-.08,1.41,0,2.19.22.78.22,1.39.65,1.83,1.27.43.62.72,1.32.84,2.08.13.76.1,1.54-.08,2.33-.18.79-.48,1.46-.9,1.99-.42.53-.95.89-1.6,1.06-.65.18-1.39.03-2.22-.46-.23-.13-.48-.28-.73-.45-.26-.17-.55-.24-.89-.22-.34.02-.72.2-1.15.52-.43.32-.94.9-1.51,1.72-.03.72-.07,1.55-.12,2.47-.06.92-.13,1.83-.21,2.72-.08.89-.19,1.72-.31,2.49-.13.77-.25,1.35-.38,1.74-.47,1.35-1.08,2.39-1.81,3.14-.74.75-1.5,1.24-2.29,1.47-.79.23-1.57.25-2.34.04-.77-.21-1.41-.57-1.92-1.1-.46-.46-.75-.95-.87-1.49-.12-.54-.11-1.09.01-1.66.12-.56.34-1.15.65-1.77.31-.61.66-1.25,1.05-1.91.34-.54.69-1.2,1.03-1.96.35-.76.67-1.65.96-2.66.29-1.01.53-2.14.72-3.39.19-1.25.3-2.65.33-4.19.01-1.42.16-2.52.45-3.29.28-.77.6-1.34.94-1.7.38-.41.81-.66,1.3-.73Z"/>
      <path class="cls-1" d="m412.42,341.3c.14-.06.41-.09.81-.08.4.01.78.18,1.16.5.37.33.65.86.83,1.61.18.75.11,1.82-.21,3.22-.06.24-.06.5-.03.76.04.26.08.43.12.51.6-.09,1.24-.13,1.93-.14.69,0,1.32.12,1.89.36.57.24,1,.64,1.29,1.18.29.55.32,1.32.09,2.32-.19.82-.54,1.47-1.07,1.94-.52.47-1.13.81-1.82,1.02-.69.21-1.41.31-2.16.3-.75-.01-1.44-.09-2.08-.24-.39,1.29-.74,2.55-1.06,3.79-.32,1.24-.52,2.38-.61,3.41-.09,1.03-.05,1.92.14,2.65.18.73.58,1.23,1.19,1.5,1.05.43,1.88.88,2.48,1.33.6.46,1.03.94,1.28,1.44.25.51.37,1.05.37,1.64,0,.59-.09,1.24-.25,1.93-.14.61-.48,1.19-1.02,1.73-.54.55-1.24.92-2.11,1.13-.86.2-1.85.17-2.98-.1-1.12-.27-2.31-.94-3.58-1.99-.81-.66-1.4-1.41-1.77-2.25-.37-.84-.59-1.7-.66-2.6-.07-.9-.03-1.8.12-2.71.14-.91.32-1.77.54-2.56.21-.8.43-1.51.66-2.13.22-.62.37-1.1.45-1.43.14-.61.4-1.45.77-2.54.37-1.08.7-2.22.97-3.4-1.18-.72-2.04-1.45-2.59-2.2-.55-.75-.73-1.53-.54-2.36.18-.79.64-1.25,1.39-1.36.75-.12,1.76-.03,3.04.26-.09-.44-.13-.77-.11-1.01s.05-.44.1-.63c.07-.3.2-.71.4-1.21.19-.5.42-.99.67-1.48.25-.49.55-.93.88-1.34s.69-.67,1.07-.81Z"/>
      <path class="cls-1" d="m446.77,347.92c2.86.54,5.23,1.32,7.14,2.35,1.9,1.02,3.39,2.17,4.48,3.42,1.08,1.26,1.81,2.56,2.17,3.9.36,1.34.42,2.59.2,3.76-.22,1.16-.71,2.17-1.44,3.01-.74.84-1.65,1.38-2.73,1.62-1.11.23-1.81.49-2.1.78-.29.29-.34.64-.15,1.04.19.4.52.88,1,1.43.48.56.93,1.23,1.36,2.01.43.79.75,1.69.98,2.72.22,1.03.17,2.23-.16,3.6-.51,2.04-1.48,3.57-2.92,4.59-1.43,1.02-3.08,1.67-4.94,1.96-1.86.29-3.8.28-5.82-.03-2.02-.3-3.86-.76-5.53-1.36-1.64-.6-2.98-1.31-4.03-2.14-1.04-.83-1.75-1.73-2.13-2.69-.38-.97-.43-1.97-.15-3.02.28-1.04.91-2.08,1.88-3.12,1.04-1.12,1.92-2.4,2.65-3.87.73-1.46,1.35-3.01,1.87-4.65.51-1.64.94-3.32,1.28-5.03.34-1.72.67-3.4.97-5.05.28-1.59.75-2.75,1.42-3.49.67-.74,1.35-1.24,2.05-1.52.81-.3,1.7-.38,2.67-.22Zm-2.92,20.89c-.13.45-.29.92-.47,1.42-.18.4-.39.84-.63,1.32-.24.48-.52.89-.85,1.23-.24.28-.47.57-.71.86-.24.29-.4.59-.47.88-.07.29-.02.57.16.86.18.28.58.53,1.19.76.73.27,1.49.41,2.28.43.79.02,1.52-.04,2.19-.2.67-.15,1.25-.39,1.73-.71.48-.32.8-.69.95-1.1.19-.53.25-1.08.18-1.65-.08-.57-.27-1.14-.6-1.71-.33-.57-.77-1.09-1.35-1.56-.58-.47-1.27-.86-2.09-1.16-.41-.15-.72-.21-.93-.19-.21.02-.36.07-.45.14-.13.09-.18.22-.14.4Zm5.1-14.03c-.31-.15-.59-.2-.84-.16-.21.02-.41.13-.62.32-.2.19-.34.52-.41,1-.11.66-.21,1.22-.31,1.68-.1.46-.2.87-.29,1.21-.09.35-.19.67-.3.96-.11.29-.21.59-.32.88-.16.44-.11.73.15.88.26.15.85.24,1.77.27.46,0,.97-.06,1.52-.2.55-.13,1.04-.34,1.5-.63.45-.28.82-.65,1.12-1.09.29-.44.43-.96.42-1.56-.05-.58-.25-1.09-.59-1.53-.34-.44-.72-.82-1.13-1.13-.48-.34-1.03-.64-1.66-.9Z"/>
      <path class="cls-1" d="m473.19,356c1.07-.03,1.98.38,2.71,1.23.73.85,1.17,2.03,1.33,3.51.16,1.49-.04,3.22-.59,5.19-.55,1.97-1.58,4.08-3.09,6.31-.92,1.37-1.93,2.68-3.04,3.95-1.11,1.27-2.1,2.4-2.97,3.39-.87,1-1.54,1.83-2,2.49-.47.66-.53,1.07-.19,1.22,1.31.58,2.24,1.14,2.8,1.65.55.52.88,1.03.98,1.54.1.51.04,1.02-.17,1.54-.21.52-.44,1.05-.68,1.59-.23.51-.58,1-1.06,1.47-.48.47-1.1.79-1.84.97-.75.18-1.63.18-2.64,0-1.01-.18-2.19-.65-3.52-1.41-.9-.5-1.52-1.11-1.85-1.82-.33-.71-.47-1.45-.42-2.21.05-.76.24-1.54.58-2.33.33-.79.72-1.53,1.14-2.23.43-.7.87-1.32,1.32-1.87.45-.55.81-.97,1.07-1.26.41-.46,1.03-1.3,1.86-2.5.82-1.2,1.67-2.6,2.52-4.18s1.64-3.25,2.35-5c.71-1.75,1.18-3.39,1.42-4.92.23-1.67.57-2.94,1.02-3.8.45-.86.9-1.48,1.34-1.86.53-.41,1.07-.63,1.62-.66Z"/>
      <path class="cls-1" d="m473.88,383.9c1.29-2.22,2.58-4.1,3.88-5.65.54-.67,1.13-1.29,1.75-1.87.62-.58,1.25-1.05,1.88-1.41.63-.36,1.27-.58,1.9-.67s1.25.06,1.83.42c.64.39.96.82.97,1.3s-.18.99-.54,1.56-.86,1.2-1.48,1.9c-.62.7-1.21,1.51-1.79,2.43-.58.91-1.08,1.92-1.49,3.02-.41,1.1-.61,2.34-.6,3.7.11,6.68-1.8,9.83-5.72,9.43-1.23-.13-2.11-.67-2.63-1.63-.53-.96-.78-2.14-.74-3.54.04-1.4.3-2.89.79-4.5s1.15-3.1,1.99-4.5Zm11.9-17.59c.52-1.03,1.24-1.76,2.17-2.18.93-.42,1.91-.38,2.94.14,1.03.52,1.72,1.31,2.08,2.38.35,1.07.27,2.12-.24,3.15-.52,1.03-1.31,1.73-2.38,2.08-1.07.36-2.12.27-3.15-.24-1.03-.52-1.66-1.27-1.87-2.27-.22-1-.06-2.01.45-3.04Z"/>
      <path class="cls-1" d="m489.41,383.35c.88-1.29,1.85-2.2,2.89-2.74,1.04-.53,2.08-.8,3.13-.8,1.04,0,2.07.21,3.09.64,1.02.42,1.98.94,2.88,1.57,1.02.73,1.81,1.54,2.36,2.43.55.89.91,1.78,1.09,2.67.17.89.19,1.75.06,2.57-.13.82-.35,1.54-.67,2.15-.31.61-.7,1.08-1.16,1.41s-.92.43-1.39.31c-.78-.2-1.39-.47-1.8-.81-.41-.35-.7-.73-.87-1.17-.17-.44-.25-.9-.26-1.39,0-.49-.02-.97-.03-1.45s-.07-.94-.15-1.38c-.09-.45-.27-.82-.56-1.13-.5-.5-1.03-.75-1.57-.74-.55.01-.98.24-1.31.68-.33.44-.46,1.07-.41,1.89.05.82.44,1.78,1.18,2.89,1.68,2.47,2.72,4.66,3.12,6.56.4,1.9.41,3.37.03,4.41-.24.62-.65,1.31-1.22,2.08-.57.77-1.33,1.42-2.3,1.94-.97.53-2.13.82-3.48.89-1.35.07-2.91-.31-4.66-1.13-1.13-.54-2.07-1.21-2.83-2.02-.76-.81-1.35-1.67-1.78-2.58-.43-.91-.7-1.83-.8-2.75-.1-.92-.05-1.76.15-2.53.2-.76.55-1.39,1.05-1.88.5-.49,1.14-.76,1.92-.81.87-.08,1.52.04,1.96.34.44.3.76.71.98,1.21.22.5.35,1.05.4,1.66.05.6.12,1.2.22,1.77.1.58.26,1.09.49,1.55.23.45.62.75,1.19.89.47.12.94.1,1.42-.08.48-.18.81-.54,1-1.1.19-.56.16-1.32-.09-2.29-.25-.97-.87-2.17-1.85-3.59-1.02-1.48-1.67-2.85-1.94-4.1-.27-1.25-.37-2.32-.29-3.21.1-1.06.37-2,.81-2.83Z"/>
      <path class="cls-1" d="m507.5,393.85c.97-1.23,1.99-2.08,3.07-2.54,1.08-.46,2.13-.66,3.17-.59,1.04.07,2.05.35,3.04.84.99.49,1.91,1.07,2.77,1.76.97.8,1.7,1.66,2.19,2.58.49.93.79,1.84.9,2.74.11.9.08,1.76-.11,2.57-.19.81-.46,1.51-.81,2.1-.36.59-.77,1.03-1.25,1.33-.48.3-.95.37-1.41.21-.77-.25-1.35-.56-1.74-.93-.39-.37-.65-.78-.79-1.23-.13-.45-.19-.91-.16-1.4.03-.49.05-.97.06-1.45.02-.48,0-.94-.06-1.39-.06-.45-.22-.84-.49-1.17-.47-.54-.98-.82-1.52-.84-.54-.03-1,.17-1.35.59-.36.42-.53,1.04-.54,1.86,0,.82.32,1.81.98,2.96,1.51,2.58,2.4,4.83,2.67,6.75.27,1.92.19,3.39-.26,4.41-.28.6-.74,1.26-1.35,1.99-.62.73-1.43,1.33-2.42,1.79-1,.46-2.18.68-3.53.66-1.35-.02-2.88-.5-4.57-1.44-1.09-.61-1.99-1.35-2.69-2.21-.7-.86-1.24-1.76-1.6-2.7-.37-.94-.57-1.87-.61-2.8-.04-.93.07-1.76.32-2.51.25-.75.65-1.35,1.17-1.81.53-.45,1.18-.68,1.97-.68.87-.02,1.52.14,1.93.47.42.33.71.76.9,1.27.18.51.28,1.08.29,1.68,0,.61.04,1.2.11,1.78.06.58.19,1.11.38,1.58.19.47.57.79,1.12.97.46.16.93.16,1.42.02.49-.14.85-.49,1.08-1.03.23-.54.25-1.3.06-2.29-.19-.99-.72-2.22-1.61-3.71-.92-1.55-1.47-2.96-1.66-4.22-.19-1.27-.21-2.34-.07-3.22.17-1.05.5-1.97,1-2.76Z"/>
    </g>
    <path class="cls-3" d="m307.55,104.65c23.21,7.1,52.28-18.17,48.83-41.32-1.04-7.06-5.06-13.51-10.64-18.41,8.4-10.87,21.13-14.22,26.33-14.43,5.88-.23,6.82-8.69-5.4-12.92-8.75-3.04-20.17,13.84-25.92,23.65-4.12-2.56-8.73-4.38-13.47-5.13-20.39-3.23-42.12,12.82-43.2,33.81-.81,15.51,9.83,30.57,23.48,34.75Zm-5.31-51.44c-4.76,7.67-3.37,15.54-2.65,18.27.31,1.18.43,2.42.29,3.64-.77,7.04-8.04,6.56-8.15-4.84-.11-12.68,15.09-24.46,10.51-17.06Z"/>
    <g>
      <g>
        <path class="cls-1" d="m122.72,289.62c-5.3-11.82-11.17-15.79-17.31-15.51-3.79.17-7.7,1.97-11.62,4.54-8.85,5.78-18.57,20.43-23.64,20.66-.84.04-3.97-.55-4.51-1.33-7.73-11.17,11.98-17.03,27.07-27.12,5.46-3.64,7.27-9.25,7.37-14.92.04-2.36-.6-4.68-1.66-6.79-5.39-10.7-9.64-21.39-12.72-30.09h0s-.03-.08-.03-.08l-.02-.07c-.08-.2-.15-.41-.22-.62-.09-.25-.19-.54-.31-.86-.18-.53-.37-1.05-.53-1.56-.53-1.61-.99-3.16-1.39-4.67-.85-3.18-2.86-6-5.79-7.51-1.63-.84-3.2-1.14-4.67-1.07-6.45.29-11.15,7.55-11.15,7.55-35.55,48.35-43.19,101.17-43.19,101.17-4,21.03,2.4,27.2,12.47,26.75,15.8-.72,40.9-16.82,48.35-19.25,4.5-1.47,8.24-3.27,12.4-3.46,2.8-.13,5.57,1.25,6.65,3.56,1.88,4.02-3.98,13.23-31.43,19.07-32.55,6.9-48,14.72-33.9,26.83,12.97,11.13,20.15,19.17,56.06,17.54,3.11-.14,6.43-.37,9.98-.69,44.44-4.09,42.34-33.12,40.07-45.8-2.26-12.68-7.74-27.12-16.33-46.27Z"/>
        <path class="cls-1" d="m196.11,252.25c.19-.4.37-.83.53-1.28.73-2,.53-4.22-.55-6.06-1.87-3.2-3.65-6.86-5.3-11.03-3.72-9.35-6.64-20.71-8.95-34.7-.58-1.89-2.17-7.49-3.2-15.14-.49-3.61-.87-7.82-.94-12.4-.04-3.02-1.37-5.88-3.72-7.77-3.33-2.69-7.33-4.51-11.63-5.26-3.7-.66-8.43-1.12-13.92-.87-5.26.24-11.23,1.13-17.7,3.11-.03.01-.07.02-.09.02-1.72.4-3.41.9-5.07,1.49-4.04,1.44-5.67,6.29-3.27,9.85,10.32,15.42,13.99,17.86,13.99,17.86,2.13.93,3.93,1.11,4.95,1.09.35-.04.75-.07,1.16-.09h.12c6.52-.3,12.87,2.77,17.02,8.23,6.65,8.76,13.96,28.94,4.21,36.36-.35.26-.71.49-1.09.71-1.89,1.6-4.28,2.9-5.96,5.6-2.97,4.82,5.58,17.95,2.24,21.62-.84.93-2.65,1.58-3.39,1.4-2.46-.58-4.51-5.31-2.54-10.58,2.65-7.09.05-14.12-.93-15.36-.48-.62-1.19-1.01-2.19-.97-1,.05-1.46.85-1.79,3.09-.67,4.46,3.48,11.33-.62,12.52-1.5.07-3.22-5.68-2.06-10.44,1.21-4.95-.61-8.99-2.08-9.78-.22-.12-.43-.29-.64-.49-5.27-3.17-10.04-7.4-12.86-11.09-4.48-5.91-5.57-13.58-2.84-20.05.27-1.03.57-2.88.15-5.25-1.63-4.58-7.85-12.53-14.5-20.22-1.36-1.58-3.32-2.35-5.26-2.26-1.4.06-2.78.58-3.93,1.56-1.13.96-2.07,1.81-2.79,2.48-.57.43-1.11.93-1.58,1.53-.34.44-.66.87-.93,1.27h-.01c-.33.48-.6.94-.86,1.34,0,.01-.01.01-.01.03-1.55,2.79-4.35,9.89-2,22.23.48,2.63,1.23,5.5,2.25,8.61.16.47.32.95.49,1.42.12.34.25.7.35,1.03.06.2.14.38.2.57,3.29,9.27,8.12,21.4,14.42,33.23,3.76,7.02,8.03,13.93,12.81,20.07,6.69,8.58,15.45,11.58,24.52,11.17,19.58-.89,40.66-17.65,45.76-28.35Z"/>
        <path class="cls-1" d="m415.54,190.25c-.75-5.77-1.6-11.44-2.56-16.89-.21-1.19-.44-2.37-.65-3.54-1.22-6.59-2.58-12.83-4.05-18.58-.18-.72-.37-1.42-.56-2.13,0-.02-.01-.03-.01-.05-.61-2.28-1.21-4.46-1.84-6.56-3.23-10.88-8.66-21.49-11.96-25.67-3.02-3.83-6.39-7.12-10-9.89t-.02-.03c-9.49-7.14-22.5-8.09-32.72-.07-11.78,9.24-16.15,7.2-25.33,11.8-8.34,4.18-9.6,13.64-9.78,15.94-.18,3.54-.04,7.12.38,10.68.59,4.82,1.01,10.08,1.26,15.88.25,5.5.74,11.86,1.36,19.75.18,2.2.36,4.43.55,6.72,2.4,29.57,5.41,66.36,1.2,95.52-.28,1.92-.59,3.66-.89,5.29-.1.51-.2,1.02-.3,1.52-.56,2.64,1.04,5.27,3.65,5.99,2.19.61,4.75,1.02,7.75,1.16,1.7.09,3.28.09,4.78.02,18.62-.84,21.47-13.67,15.37-42.87-3.36-16.05,2.58-23.55,9.12-23.84,6.27-.28,13.13,6.12,12.7,17.92-.34,9.36-4.67,21.39-7.56,32.26h-.01s-.24.82-.55,2.12c-.02.1-.05.21-.08.33-1.19,5.42-2.89,18.26,7.13,20.62,9.89,2.35,24.74-.16,33.69-11.26,1.11-1.37,2.14-2.87,3.04-4.5,1.18-2.15,2.18-4.53,2.92-7.16.06-.17.11-.33.15-.5,2.78-8.16,4.54-17.63,5.54-27.81.06-.53.11-1.08.15-1.63.03-.24.05-.5.07-.75.07-.74.12-1.49.18-2.23.75-24.84-2.15-57.57-2.15-57.57Zm-47.3,14.5s-5.7,2.6-11.07,2.84c-5.5.25-10.65-1.92-9.33-11.72,2.22-16.35,6.55-22.61,11.44-22.83.94-.03,1.87.13,2.84.52,5.98,2.33,16.43,25.25,6.12,31.19Z"/>
        <path class="cls-1" d="m507.01,227.65c2.39-.17,5.14-.51,8.05-1.08,1.1-8.72,3.21-16.77,6.28-24.08,5.36-12.77,13.64-22.72,24.04-29-.63-2.58-1.5-5.17-2.68-7.64-13.99-28.95-36.44-41.02-84.46-46.9-1.59-.2-3.16-.3-4.7-.3-.57,0-1.14.02-1.7.04-12.44.57-23.3,7.29-29.34,17.48-2.03,3.42-2.48,7.56-1.48,11.42,1.86,7.11,3.57,14.99,5.08,23.44,1.03,5.82,1.95,11.89,2.73,17.98.08.7.18,1.42.26,2.14,2.24,18.47,3.01,36.34,2.22,52.15-.07,1.64-.17,3.29-.28,4.89-1.15,15.66-3.91,28.88-8.19,39.3-1.29,3.16-2.69,5.97-4.19,8.49-1.55,2.65-1.43,6.01.48,8.43,2.18,2.76,5.34,5.18,9.79,7.28,5.08,2.38,9.28,3.42,12.76,3.42.26,0,.51,0,.77-.01,19.1-.87,14.88-34.78,14.34-46.62-.3-6.78,5.16-12.61,9.89-12.82h.26c4.96,0,8.94,6.36,4.21,24.61-4.87,18.79-3.16,38.67,10.64,50.23,2.66,2.22,9.04,5.28,16.12,5.28.36,0,.73-.01,1.09-.02,6.1-.28,12.63-2.93,17.62-10.47,1.44-2.17,2.76-4.7,3.91-7.72,1.64-4.36,2.93-9.63,3.73-16.05.71-5.65.54-11.3-.43-16.78-.65-3.47-1.6-6.87-2.88-10.14-3.48-8.88-9.35-16.77-17.33-22.6-3.1-2.25-6.57-4.25-10.43-5.79-23.2-9.26-3.48-17.19,13.81-18.54Zm-28.52-26.2c-1.67,4.48-7.59,8.36-13.03,8.6-.18.01-.36.02-.55.02-4.96,0-9.38-3.11-9.74-11.54-.76-18.02,12.03-20.51,12.03-20.51.15-.01.3-.02.45-.04h.41c9.43-.01,13.57,14.98,10.42,23.47Z"/>
        <path class="cls-1" d="m584.51,180.55c-3.9-.88-7.68-1.31-11.3-1.31-4.59,0-8.95.69-13.01,2-1.85.63-3.64,1.37-5.37,2.24-.37.19-.73.37-1.08.58-2.26,1.22-4.38,2.67-6.38,4.33-8.71,7.28-15,18.61-17.97,33.23-.53,2.56-.94,5.21-1.24,7.97-.28,2.38-.47,4.82-.58,7.35-.19,4.14-.14,8.46.13,12.96.12,1.79.33,3.42.67,4.91v.02c.76,6.7,3.9,12.72,10.95,17.23,6.35,4.09,12.15,6.51,17.33,7.82.06-.07.13-.16.2-.24,11.57-13.79,24.47-24.87,37.29-32.06,7.49-4.2,14.83-7.01,21.91-8.41.87-3.52,1.4-7.1,1.65-10.72h.02v-.04s.01-.1.01-.22c.07-3.39.18-40.14-33.21-47.65Zm-6.16,63.92c-2.61,3.87-8.14,6.46-13.11,6.46-1.04,0-2.05-.12-3.02-.35-4.93-1.22-8.37-5.76-6.05-15.21,4.75-19.22,17.26-19.64,18.35-19.64h.08c.27.04.54.1.81.16,9.38,2.32,8.75,19.97,2.93,28.59Z"/>
        <path class="cls-1" d="m662.87,307.51c-.1-2.65-.14-5.3-.21-7.95-.12-4.95-.88-10.12-2.42-15.5v-.02c-6.59-23.1-19.18-32.55-33.98-32.55h-.13c-2.5.01-5.06.29-7.67.81-2.98.61-6.02,1.54-9.09,2.76-2.88,1.13-5.79,2.53-8.7,4.17-9.14,5.12-18.33,12.52-26.84,21.45h-.01c-2.24,2.33-4.4,4.75-6.53,7.26-.08.09-.15.19-.23.28-1.73,2.06-3.33,4.12-4.76,6.15-24.86,35.31-7.05,64.71-6.3,65.83,3.98,7.16,7.63,9.43,10.79,12.18,6.78,5.94,13.38,7.68,19.34,9.73,5.95,2.04,11.2,2.69,15.52,2.69,8.05,0,12.83-2.3,12.83-2.3,41.21-14.88,49.59-45.52,48.39-75Zm-48.38,35.52c-3.13,3.87-8.97,6.24-14.36,6.24-1.73,0-3.42-.25-4.97-.77-5.59-1.92-9.13-7.54-5.47-18.28,6.68-19.56,19.07-20.96,22.49-20.96.57,0,.88.04.88.04.31.07.63.17.93.25,10.66,3.65,8.15,24.06.51,33.47Z"/>
      </g>
      <path class="cls-1" d="m305.72,181.78c-.59-7.43-1.1-14.22-1.37-20.05-.14-3.31-.33-6.59-.64-9.81-.47-5.33-1.14-10.47-2.16-15.31-4.3-20.87-14.49-35.93-38.81-34.81-8.27.36-18.15,2.61-30.03,7.13-31.58,12.07-40.32,36.04-41.52,55.91-.14,2.52-.18,4.96-.11,7.3.08,3.84.43,7.4.83,10.59,1.17,8.63,3.1,14.34,3.1,14.34,2.3,14.14,5.21,25.13,8.57,33.61,1.33,3.35,2.74,6.3,4.16,8.92,1.17,2.08,2.38,3.95,3.62,5.63,8.79,11.87,19.33,13.72,29.96,13.24,5.96-.27,11.95-1.26,17.68-1.66.16-.02.33-.03.5-.04,19.87-.9,29.37,25.98-2.41,27.42-5.7.25-12.72-.28-21.25-1.96-13.2-2.61-24.74-3.73-34.69-3.29-15.12.69-26.54,5.01-34.47,13.26h0s-18.2,15.98-8.53,38.56c0,0,2.63,5.11,6.65,6.81,4.02,1.7,5.41,7.73,3.25,12.22-2.17,4.49.15,8.82,5.72,8.04,5.57-.77-1.24-9.28,1.08-14.54,2.32-5.26,6.81-5.11,8.51-3.4,1.7,1.7,6.34,10.24,2.63,18.04-3.71,7.8,3.42,13.58,8.51,10.27,9.85-6.41-8.58-13.98,7.08-37.87,0,0,0,0,0,0,.69-.86,1.3-1.76,1.85-2.69,1.05-1.45,1.83-2.87,2.36-4.25.72-1.89,1.41-3.8,2.24-5.65,2.54-5.66,5.76-10.65,14.28-12.22h0c2.74-.96,5.73-1.46,8.86-1.6,11.7-.53,25.31,3.92,34.41,7.94,6.97,3.07,12.74,4.24,17.59,4.02,11.41-.51,17.46-8.84,20.87-18.53.53-1.47.98-2.95,1.37-4.45.52-1.89.94-3.82,1.3-5.7.32-1.69.6-3.37.83-4.97,4.39-30.49.57-70.65-1.82-100.43Zm-51.56,37.2c-5.27.24-10.58-2.81-14.11-11.45-9.6-23.45,6.11-32.85,6.11-32.85,1.53-.72,3.09-1.08,4.6-1.15,11.22-.51,21.58,15.21,21.46,26.73-.06,8.26-9.05,18.31-18.07,18.72Z"/>
    </g>
  </g>
  <g>
    <path class="cls-1" d="m654.94,223.89h-4.26v14.55h-3.45v-14.55h-4.26v-3.19h11.97v3.19Z"/>
    <path class="cls-1" d="m676.11,220.7v17.74h-3.45v-11.76l-5.3,8.59h-1.14l-5.32-8.59v11.76h-3.42v-17.74h3.65l5.65,9.13,5.65-9.13h3.68Z"/>
  </g>
</svg>